<?xml version="1.0" encoding="utf-8"?>
<!-- Generator: Adobe Illustrator 25.3.1, SVG Export Plug-In . SVG Version: 6.00 Build 0)  -->
<svg version="1.1" id="レイヤー_1" xmlns="http://www.w3.org/2000/svg" xmlns:xlink="http://www.w3.org/1999/xlink" x="0px"
	 y="0px" viewBox="0 0 335.6 259.88" style="enable-background:new 0 0 335.6 259.88;" xml:space="preserve">
<style type="text/css">
	.アーチ_x0020__x0028_グリーン_x0029_{fill:url(#SVGID_1_);stroke:#FFFFFF;stroke-width:0.25;stroke-miterlimit:1;}
	.st0{fill:#174299;}
	.st1{fill:#FFFFFF;}
	.st2{clip-path:url(#SVGID_3_);}
	.st3{fill:#0053A6;}
	.st4{fill:#006FBC;}
	.st5{fill:#0093DC;}
</style>
<linearGradient id="SVGID_1_" gradientUnits="userSpaceOnUse" x1="-120.7354" y1="390.9956" x2="-120.0283" y2="390.2885">
	<stop  offset="0" style="stop-color:#00A53B"/>
	<stop  offset="0.9831" style="stop-color:#133618"/>
</linearGradient>
<g>
	<g>
		<path class="st0" d="M273.67,38.82c0,0,8.86,6.97,10.62,6.73c1.76-0.25-1.75,0.25-1.75,0.25s0.8,3.11-5.06,2.15
			c0,0-10.97-6.67-17.13-4.73l-1.6-1.2l-1.65-1.55l-3.56,0.14l-1.05,2.65c0,0-3.71,9.17-7.25,11.97c0,0-9.36,12.22-11.41,10.36
			c0,0,4.96,2.16,5.25,4.26c0,0,5.97-1.67,8.86,0.35l6.36-0.9c0,0,3.68-6.03,5.36-4.49l4.86-4.58l1.2-0.65l1.88-1.57l2.23-1.45
			l2.43-1.16l1.68,0.41l1.68,0.41l2.29,1.29l1.75,0.89l1.18,1.45l1.17,1.45l0.27,1.91l-0.34,2.15l-0.57-1.7l-0.79-1.02l-1.09-0.82
			l-1.54-0.59l-0.95,0.13l1.97,1.34l0.86,1.5l-1.89,0.43l-2.42-1.11l-2.41,1.31l-0.63-0.56L272,63.86l-1.98-0.2l3.49,2.91
			l-1.27,0.18l-1.91,0.27l-1.91,0.27l-1.75,0.25l-0.96,0.13l-1.11,1.31l-1.43,0.21l-4.98,3.77c0,0,4.45,3.9,1.76,8.99
			c0,0-0.56-3.97-1.45-3.36c0,0-3.18-0.68-3.06-2.16c0,0-2.74,0.06-1.48,3.29c0,0-4.46,7.44-5.84,7.96c0,0-14.28,1.06-14.51,2.88
			l-7.15,1.01c0,0-3.58-0.14-3.94-1.55c0,0-6.87-8.43-6.85-7.14l-0.91-1.82l-1.16-1.29l-1.38,0.52c0,0-6.25,1.7-11.01,1.24
			l-0.95,0.13l-1.75,0.25l-1.09,1.45l-2.2,0.47l-2.79,0.89l-3.16,0.61l-4.54,1.13l-3.57,1.16c0,0-6.33-0.07,0,4.54l6.4,3.96
			l1.09,0.82l1.36,1.59l0.41,1.72l0.72,1.68c0,0,7.18-3.12,6.81,6.82c0,0-1.63-3.5-2.86-3l-0.14,2.45l-0.02,0.98l-0.32,1.18
			l1.13,1.14c0,0,1.43,4.33-1.37,6.35c0,0-1.09-5.36-1.81-4.77c0,0-1.02,3.07-2.43,3.43l-0.07-2.75l-0.66-1.2l-0.75-0.7l-0.98-1.16
			l-0.2-1.43l-0.34-1.25l-1.04-1.63l-1.2-1.62l-1.07-0.66l-1.25-0.8l-0.7,0.75l-1.7-0.57l-2.11-4.57l-0.36-1.41L176.81,97
			l-5.24-4.93c0,0-3.33-8.61-6.97,1.15l-4.23,5.63c0,0-1.8,4.46-16.31,8.47l-2.84,1.7l-2.54,0.36l-11.92,2.83
			c0,0-5.94-0.4-10.69,6.44c-0.11,0.15-0.22,0.31-0.32,0.47c-4.8,7.33-5.85,11.38-6.51,13.58c0,0,12.08-1.71,10.1,6.03
			c0,0-3.88-5.61-8.7-0.71l4.81,3.05c0,0,6.13-2.49,7.47,3.48c0,0-5.38-2.48-6.29,0.24l-0.55,0.73l-1.16,0.97l-1.27,0.18l-0.64,0.09
			l0.3,0.93l-2.04-0.68l-1.13,1.13l-1.75,0.25l-3.13-0.37l-1.61,0.06l-1.25-0.8l-1.41-0.77l-0.82-1.19l-1.18-1.45
			c0,0-6.58-5.22-3.76-8.22l1.64-1.05l0.71-1.88l0.14-1.32l0.18-1l2.95-3.17l2-1.9l1.37-1.82l1.02-1.93l7.07-11.87
			c0,0-0.77-0.87,7.02-4.24c0,0,5.59-1.76,11.52-7.96c0,0,7.48-9.01,16.49-8.34l1.23-1.63l0.5-2.16l-0.25-1.77
			c0,0-1.97-10.42,1.51-14.48l-0.11-0.79l-1.81-0.22l-9.63,0.72c0,0-36.76-0.78-48.23,8.63c0,0-23.1,10.9-30,10.26
			c0,0-33.99-0.02-43.82-11.37c0,0,15.57,8.88,33.11,6.4c0,0,23.2-0.43,45.21-19.3c0,0,37.7-24.33,67.4-16.73
			c0,0,10.22-3.6,39.13-1.61c0,0,12.62,3.21,20.54,3.52c0,0,8.02,1.01,11.28-13.77c0,0,1.21-16.63,18.35-19.42
			c0,0,15.44-4.7,28.06-3.99c0,0,3.21-0.1,4.75,5.77c0,0-22.15,10.3-25.06,9.99c0,0,0.42,5.48,4.34,5.37c0,0,8.59,3.59,9.64,2.94
			c0,0,6.06-0.27,8.25-2.52c0,0-2.37,3.37-8.94,4.79L273.67,38.82z"/>
		<polygon class="st0" points="259.82,25.69 261.16,28.57 260.73,25.56 		"/>
		<polygon class="st0" points="260.51,25.59 261.85,28.47 261.42,25.46 		"/>
		<polygon class="st0" points="260.93,25.26 262.27,28.14 261.84,25.13 		"/>
		<polygon class="st0" points="261.42,25.46 262.76,28.34 262.34,25.33 		"/>
		<polygon class="st0" points="261.84,25.13 263.18,28.01 262.75,25 		"/>
		<polygon class="st0" points="262.3,25.07 263.64,27.95 263.21,24.94 		"/>
		<polygon class="st0" points="262.72,24.76 264.06,27.64 263.63,24.63 		"/>
		<polygon class="st0" points="263.4,24.66 264.74,27.54 264.31,24.53 		"/>
		<polygon class="st0" points="263.81,24.31 265.15,27.19 264.73,24.17 		"/>
		<polygon class="st0" points="264.48,24.21 265.82,27.09 265.39,24.08 		"/>
		<polygon class="st0" points="264.91,23.9 266.24,26.78 265.82,23.77 		"/>
		<polygon class="st0" points="265.3,23.38 266.64,26.26 266.21,23.25 		"/>
		<polygon class="st0" points="265.71,23.05 267.05,25.93 266.63,22.92 		"/>
		<polygon class="st0" points="266.17,22.98 267.51,25.86 267.08,22.86 		"/>
		<polygon class="st0" points="266.67,23.18 268,26.06 267.58,23.05 		"/>
		<polygon class="st0" points="267.05,22.61 268.39,25.49 267.96,22.48 		"/>
		<polygon class="st0" points="267.51,22.55 268.84,25.43 268.42,22.42 		"/>
		<polygon class="st0" points="267.92,22.19 269.26,25.07 268.83,22.06 		"/>
		<polygon class="st0" points="268.64,22.39 269.98,25.27 269.55,22.26 		"/>
		<polygon class="st0" points="269.02,21.79 270.36,24.66 269.93,21.66 		"/>
		<polygon class="st0" points="269.78,22.22 271.12,25.11 270.69,22.09 		"/>
		<polygon class="st0" points="269.7,21.69 271.04,24.56 270.61,21.56 		"/>
		<polygon class="st0" points="271.92,20.9 273.26,23.78 272.83,20.77 		"/>
		<polygon class="st0" points="272.3,20.33 273.64,23.21 273.21,20.2 		"/>
		<polygon class="st0" points="272.72,19.97 274.06,22.85 273.63,19.84 		"/>
		<polygon class="st0" points="273.21,20.2 274.55,23.08 274.13,20.07 		"/>
		<polygon class="st0" points="273.6,19.6 274.93,22.48 274.51,19.47 		"/>
		<polygon class="st0" points="274.02,19.29 275.36,22.17 274.93,19.16 		"/>
		<polygon class="st0" points="274.47,19.23 275.81,22.11 275.38,19.1 		"/>
		<polygon class="st0" points="274.9,18.94 276.23,21.83 275.81,18.82 		"/>
		<polygon class="st0" points="275.31,18.62 276.66,21.5 276.23,18.48 		"/>
		<polygon class="st0" points="275.19,19.12 276.53,22.01 276.1,19 		"/>
		<polygon class="st0" points="275.81,18.82 277.15,21.7 276.72,18.68 		"/>
		<polygon class="st0" points="276.19,18.24 277.53,21.12 277.1,18.11 		"/>
		<polygon class="st0" points="276.61,17.89 277.95,20.76 277.52,17.76 		"/>
		<polygon class="st0" points="277.28,18.09 278.62,20.97 278.19,17.96 		"/>
		<polygon class="st0" points="276.72,18.68 278.06,21.57 277.63,18.55 		"/>
		<polygon class="st0" points="276.78,17.86 278.12,20.74 277.69,17.73 		"/>
		<polygon class="st0" points="277.62,17.24 278.97,20.13 278.54,17.12 		"/>
		<polygon class="st0" points="278.12,17.42 279.46,20.31 279.03,17.29 		"/>
		<polygon class="st0" points="278.58,17.36 279.91,20.24 279.48,17.23 		"/>
		<polygon class="st0" points="278.99,17.05 280.34,19.93 279.91,16.92 		"/>
		<polygon class="st0" points="279.45,16.99 280.79,19.87 280.36,16.86 		"/>
		<polygon class="st0" points="278.73,17.08 280.07,19.97 279.65,16.96 		"/>
		<polygon class="st0" points="277.56,18.05 278.9,20.93 278.47,17.92 		"/>
		<polygon class="st0" points="270.09,21.16 271.43,24.04 271.01,21.03 		"/>
		<polygon class="st0" points="270.55,21.1 271.89,23.97 271.46,20.97 		"/>
		<polygon class="st0" points="271.01,21.03 272.34,23.91 271.92,20.9 		"/>
		<polygon class="st0" points="271.42,20.7 272.76,23.58 272.34,20.57 		"/>
		<g>
			<polygon class="st0" points="280.25,45.96 282.07,43.35 279.68,45.23 			"/>
			<polygon class="st0" points="279.56,45.91 281.38,43.31 278.99,45.19 			"/>
			<polygon class="st0" points="279.04,45.73 280.86,43.13 278.47,45.01 			"/>
			<polygon class="st0" points="278.99,45.19 280.81,42.58 278.42,44.46 			"/>
			<polygon class="st0" points="278.28,45.16 280.1,42.56 277.71,44.43 			"/>
			<polygon class="st0" points="277.8,44.95 279.62,42.35 277.23,44.22 			"/>
			<polygon class="st0" points="277.51,44.58 279.34,41.98 276.95,43.86 			"/>
			<polygon class="st0" points="277.06,44.36 278.88,41.76 276.49,43.64 			"/>
			<polygon class="st0" points="276.56,44.16 278.38,41.56 275.99,43.44 			"/>
			<polygon class="st0" points="277.07,44.01 278.89,41.42 276.5,43.29 			"/>
			<polygon class="st0" points="276.49,43.64 278.31,41.03 275.92,42.92 			"/>
			<polygon class="st0" points="275.8,43.6 277.62,40.99 275.23,42.87 			"/>
			<polygon class="st0" points="275.28,43.42 277.1,40.81 274.71,42.69 			"/>
			<polygon class="st0" points="275.12,42.73 276.94,40.12 274.55,42 			"/>
			<polygon class="st0" points="275.92,42.92 277.74,40.31 275.35,42.19 			"/>
			<polygon class="st0" points="275.17,43.27 276.99,40.67 274.6,42.55 			"/>
			<polygon class="st0" points="274.22,42.85 276.04,40.25 273.64,42.13 			"/>
			<polygon class="st0" points="274.12,42.34 275.94,39.73 273.56,41.62 			"/>
			<polygon class="st0" points="273.84,41.97 275.66,39.37 273.27,41.26 			"/>
			<polygon class="st0" points="273.36,41.77 275.18,39.16 272.79,41.04 			"/>
			<polygon class="st0" points="273.08,41.4 274.9,38.8 272.51,40.68 			"/>
			<polygon class="st0" points="273.52,41.97 275.35,39.37 272.96,41.25 			"/>
			<polygon class="st0" points="274.95,42.5 276.77,39.9 274.37,41.78 			"/>
			<polygon class="st0" points="281.1,47.04 282.92,44.44 280.53,46.31 			"/>
			<polygon class="st0" points="280.82,46.68 282.64,44.08 280.25,45.96 			"/>
			<polygon class="st0" points="280.32,46.48 282.14,43.88 279.75,45.76 			"/>
		</g>
	</g>
	<path class="st1" d="M223.15,75.88l3.04-3.31c0,0,13.47,4.92,14.22,4.81c0,0,5.29-1.39,6.08-1.69l3.53-0.83c0,0-3.5,7.27-3.21,7.55
		l-9.51,1.35c0,0-4.28-1.37-5.12-0.55l-6.26,0.89l-0.37-0.84C225.54,83.27,226.12,76.1,223.15,75.88z"/>
</g>
<g>
	<defs>
		<rect id="SVGID_2_" x="3.33" y="115.27" width="332.44" height="92.32"/>
	</defs>
	<clipPath id="SVGID_3_">
		<use xlink:href="#SVGID_2_"  style="overflow:visible;"/>
	</clipPath>
	<g class="st2">
		<rect x="251.23" y="153.37" class="st3" width="42.72" height="152.53"/>
		<g>
			<rect x="228.68" y="177.29" class="st4" width="96.67" height="129.34"/>
			<rect x="185.92" y="135.77" class="st5" width="81.67" height="170.87"/>
			<rect x="163.71" y="147.9" class="st4" width="61.82" height="158.74"/>
			<rect x="134.7" y="115.27" class="st0" width="69.7" height="191.36"/>
			<rect x="13.11" y="170.03" class="st0" width="74.62" height="136.61"/>
			<rect x="62.1" y="147.9" class="st4" width="72.6" height="158.74"/>
			<rect x="118.33" y="177.29" class="st5" width="32.74" height="129.34"/>
		</g>
	</g>
</g>
<g>
	<g>
		<path class="st0" d="M31.45,220.71c-1.54,0-2.96,0.25-4.27,0.76c-1.3,0.51-2.42,1.25-3.35,2.22c-0.93,0.97-1.66,2.17-2.18,3.6
			c-0.52,1.43-0.79,3.05-0.79,4.89c0,1.82,0.24,3.42,0.72,4.8c0.48,1.38,1.16,2.53,2.06,3.46c0.89,0.93,1.98,1.62,3.27,2.09
			c1.29,0.47,2.75,0.71,4.38,0.71c1.17,0,2.37-0.09,3.58-0.28c1.22-0.19,2.36-0.46,3.42-0.81v4.88c-1.08,0.31-2.24,0.55-3.49,0.73
			c-1.25,0.18-2.54,0.27-3.88,0.27c-2.62,0-4.92-0.37-6.91-1.12c-1.99-0.75-3.65-1.8-4.98-3.17c-1.33-1.36-2.33-3-3.01-4.9
			c-0.67-1.9-1.01-4-1.01-6.3c0-2.36,0.36-4.55,1.08-6.57c0.72-2.02,1.75-3.77,3.1-5.25c1.35-1.48,3.04-2.64,5.06-3.49
			c2.03-0.85,4.32-1.28,6.88-1.29c1.31,0,2.55,0.09,3.72,0.27c1.17,0.18,2.23,0.43,3.17,0.75v4.81c-1.23-0.39-2.38-0.66-3.44-0.81
			S32.47,220.71,31.45,220.71z"/>
		<path class="st0" d="M64.75,236.25c0,1.76-0.26,3.36-0.79,4.81c-0.52,1.45-1.28,2.69-2.25,3.72c-0.98,1.03-2.16,1.83-3.55,2.39
			c-1.39,0.56-2.94,0.84-4.65,0.84c-1.76,0-3.33-0.28-4.73-0.84c-1.39-0.56-2.58-1.36-3.55-2.39c-0.97-1.03-1.71-2.27-2.23-3.72
			c-0.52-1.45-0.77-3.05-0.77-4.81c0-1.76,0.26-3.36,0.79-4.81c0.52-1.45,1.28-2.69,2.25-3.72c0.98-1.03,2.16-1.83,3.55-2.39
			c1.39-0.56,2.94-0.84,4.65-0.84c1.76,0,3.33,0.28,4.73,0.84c1.39,0.56,2.58,1.36,3.55,2.39c0.97,1.03,1.71,2.27,2.23,3.72
			C64.49,232.89,64.75,234.49,64.75,236.25z M59.08,236.25c0-1.19-0.14-2.23-0.42-3.14c-0.28-0.91-0.66-1.67-1.16-2.29
			c-0.49-0.62-1.09-1.08-1.78-1.39c-0.69-0.31-1.45-0.46-2.27-0.46c-0.8,0-1.55,0.15-2.23,0.46c-0.69,0.31-1.28,0.77-1.77,1.39
			c-0.49,0.62-0.88,1.38-1.16,2.29c-0.28,0.91-0.42,1.96-0.42,3.14s0.14,2.23,0.42,3.14c0.28,0.91,0.67,1.67,1.17,2.28
			c0.5,0.61,1.09,1.07,1.78,1.39c0.69,0.32,1.44,0.47,2.25,0.47c0.82,0,1.56-0.16,2.24-0.47c0.68-0.32,1.26-0.78,1.76-1.39
			c0.49-0.61,0.88-1.37,1.16-2.28C58.94,238.49,59.08,237.44,59.08,236.25z"/>
		<path class="st0" d="M68.44,236.69c0-1.96,0.27-3.7,0.81-5.24c0.54-1.53,1.28-2.82,2.21-3.86c0.93-1.04,2-1.82,3.2-2.34
			c1.2-0.52,2.45-0.78,3.75-0.78c0.6,0,1.17,0.05,1.71,0.16c0.54,0.11,1.05,0.26,1.53,0.44c0.48,0.19,0.92,0.39,1.34,0.62
			c0.42,0.23,0.8,0.47,1.16,0.72h0.05c-0.02-0.31-0.03-0.74-0.03-1.31c-0.01-0.56-0.01-1.18-0.01-1.84v-9.32h5.48v26.82
			c0,1.48,0.02,2.75,0.05,3.81c0.03,1.06,0.06,2.01,0.09,2.84h-4.95l-0.23-2.38h-0.09c-0.32,0.38-0.71,0.76-1.17,1.13
			c-0.45,0.37-0.96,0.69-1.5,0.96c-0.55,0.27-1.15,0.48-1.8,0.64c-0.66,0.15-1.37,0.23-2.14,0.23c-1.22,0-2.39-0.21-3.5-0.65
			c-1.12-0.43-2.12-1.1-3.01-2c-0.89-0.9-1.6-2.08-2.13-3.54C68.71,240.38,68.44,238.66,68.44,236.69z M79.24,243.65
			c0.54,0,1.05-0.07,1.54-0.21c0.49-0.14,0.94-0.32,1.38-0.55c0.43-0.23,0.81-0.48,1.14-0.76c0.33-0.28,0.61-0.55,0.84-0.81v-10.63
			c-0.65-0.52-1.37-0.96-2.17-1.31c-0.8-0.35-1.65-0.52-2.54-0.52c-0.57,0-1.17,0.12-1.79,0.35c-0.62,0.23-1.19,0.62-1.71,1.18
			c-0.52,0.55-0.95,1.33-1.3,2.31c-0.35,0.99-0.52,2.24-0.52,3.77c0,2.25,0.44,4.01,1.31,5.27C76.29,243,77.56,243.63,79.24,243.65z
			"/>
		<path class="st0" d="M107.54,243.6c1.06,0,2.17-0.11,3.33-0.32c1.16-0.21,2.33-0.52,3.51-0.92v4.37c-0.71,0.31-1.8,0.6-3.26,0.88
			c-1.46,0.28-2.98,0.42-4.55,0.42c-1.59,0-3.09-0.2-4.52-0.61c-1.43-0.41-2.67-1.07-3.73-1.98c-1.06-0.91-1.91-2.09-2.53-3.54
			c-0.62-1.45-0.94-3.21-0.94-5.27c0-2.04,0.29-3.81,0.88-5.34c0.59-1.53,1.37-2.79,2.36-3.79c0.99-1,2.12-1.75,3.39-2.25
			c1.27-0.5,2.59-0.75,3.94-0.75c1.42,0,2.72,0.22,3.92,0.65c1.19,0.43,2.23,1.11,3.1,2.04c0.87,0.92,1.55,2.12,2.03,3.57
			c0.49,1.46,0.73,3.18,0.73,5.17c-0.02,0.77-0.04,1.43-0.07,1.96h-14.68c0.08,1.03,0.31,1.92,0.69,2.65
			c0.39,0.73,0.89,1.33,1.51,1.78c0.62,0.46,1.35,0.79,2.19,0.99C105.67,243.5,106.57,243.6,107.54,243.6z M105.35,228.76
			c-0.69,0-1.31,0.13-1.85,0.38c-0.54,0.25-1.01,0.6-1.4,1.04c-0.39,0.44-0.71,0.95-0.94,1.54c-0.23,0.59-0.39,1.21-0.46,1.87h8.81
			c0-0.66-0.09-1.29-0.27-1.87c-0.18-0.59-0.44-1.1-0.79-1.54c-0.35-0.44-0.78-0.79-1.29-1.04
			C106.64,228.89,106.04,228.76,105.35,228.76z"/>
		<path class="st0" d="M144.07,218.4c-0.6-0.15-1.22-0.28-1.86-0.38c-0.64-0.1-1.25-0.15-1.82-0.15c-0.62,0-1.16,0.07-1.64,0.22
			c-0.48,0.15-0.88,0.39-1.21,0.73c-0.33,0.34-0.58,0.78-0.75,1.32c-0.17,0.54-0.25,1.2-0.25,1.96v2.94h6.22v4.51h-6.22v17.89h-5.48
			v-17.89h-3.79v-4.51h3.79v-2.66c0-1.57,0.22-2.92,0.66-4.06c0.44-1.13,1.05-2.07,1.84-2.8c0.79-0.73,1.71-1.27,2.77-1.62
			c1.06-0.35,2.22-0.52,3.47-0.52c0.77,0,1.54,0.07,2.3,0.2c0.76,0.13,1.42,0.29,1.98,0.47V218.4z"/>
		<path class="st0" d="M166.94,236.25c0,1.76-0.26,3.36-0.79,4.81c-0.52,1.45-1.28,2.69-2.25,3.72c-0.98,1.03-2.16,1.83-3.55,2.39
			c-1.39,0.56-2.94,0.84-4.65,0.84c-1.76,0-3.33-0.28-4.73-0.84s-2.58-1.36-3.55-2.39c-0.97-1.03-1.71-2.27-2.23-3.72
			c-0.52-1.45-0.77-3.05-0.77-4.81c0-1.76,0.26-3.36,0.79-4.81c0.52-1.45,1.28-2.69,2.25-3.72c0.98-1.03,2.16-1.83,3.55-2.39
			c1.39-0.56,2.94-0.84,4.65-0.84c1.76,0,3.33,0.28,4.73,0.84c1.39,0.56,2.58,1.36,3.55,2.39c0.97,1.03,1.71,2.27,2.23,3.72
			C166.68,232.89,166.94,234.49,166.94,236.25z M161.27,236.25c0-1.19-0.14-2.23-0.42-3.14c-0.28-0.91-0.66-1.67-1.16-2.29
			c-0.49-0.62-1.09-1.08-1.78-1.39c-0.69-0.31-1.45-0.46-2.27-0.46c-0.8,0-1.55,0.15-2.23,0.46c-0.69,0.31-1.28,0.77-1.77,1.39
			c-0.49,0.62-0.88,1.38-1.16,2.29c-0.28,0.91-0.42,1.96-0.42,3.14s0.14,2.23,0.42,3.14c0.28,0.91,0.67,1.67,1.17,2.28
			c0.5,0.61,1.09,1.07,1.78,1.39c0.69,0.32,1.44,0.47,2.25,0.47c0.82,0,1.56-0.16,2.24-0.47c0.68-0.32,1.26-0.78,1.76-1.39
			c0.49-0.61,0.88-1.37,1.16-2.28C161.14,238.49,161.27,237.44,161.27,236.25z"/>
		<path class="st0" d="M185.11,229.38h-0.46c-1.68,0-3.16,0.25-4.43,0.75c-1.27,0.5-2.25,1.27-2.95,2.3v15h-5.48v-22.4h4.53
			l0.51,3.12h0.09c0.65-1.14,1.54-2.04,2.67-2.69c1.13-0.66,2.49-0.98,4.08-0.98c0.55,0,1.03,0.03,1.43,0.09V229.38z"/>
		<path class="st0" d="M204.46,247.44h-5.66v-30.94h19.7v4.74h-14.03v8h12v4.74h-12V247.44z"/>
		<path class="st0" d="M236.28,248.02c-1.62,0-3.07-0.16-4.37-0.47c-1.29-0.32-2.44-0.77-3.42-1.37c-0.99-0.59-1.83-1.32-2.52-2.17
			c-0.69-0.86-1.25-1.82-1.66-2.9c-0.34-0.86-0.58-1.82-0.73-2.87c-0.15-1.05-0.22-2.22-0.22-3.51v-18.22h5.66v17.71
			c0,2.19,0.26,3.9,0.79,5.13c0.59,1.37,1.44,2.36,2.57,2.97c1.12,0.61,2.45,0.91,3.98,0.91c1.53,0,2.85-0.3,3.98-0.91
			c1.12-0.61,1.98-1.6,2.57-2.97c0.52-1.23,0.79-2.94,0.79-5.13v-17.71h5.66v18.22c0,1.29-0.07,2.46-0.22,3.51
			c-0.15,1.05-0.39,2-0.73,2.87c-0.42,1.08-0.98,2.04-1.68,2.9c-0.7,0.86-1.56,1.58-2.57,2.17c-1.01,0.59-2.17,1.05-3.48,1.37
			C239.36,247.86,237.89,248.02,236.28,248.02z"/>
		<path class="st0" d="M256.62,247.44v-30.94h5.66v14.08h0.09l11.68-14.08h7.03l-12.9,15.33l13.96,15.61h-7.26l-12.51-13.96h-0.09
			v13.96H256.62z"/>
		<path class="st0" d="M299.35,248.02c-1.62,0-3.07-0.16-4.37-0.47c-1.29-0.32-2.44-0.77-3.42-1.37c-0.99-0.59-1.83-1.32-2.52-2.17
			c-0.69-0.86-1.25-1.82-1.67-2.9c-0.34-0.86-0.58-1.82-0.73-2.87c-0.15-1.05-0.22-2.22-0.22-3.51v-18.22h5.66v17.71
			c0,2.19,0.26,3.9,0.79,5.13c0.59,1.37,1.44,2.36,2.57,2.97c1.12,0.61,2.45,0.91,3.98,0.91c1.53,0,2.85-0.3,3.98-0.91
			c1.12-0.61,1.98-1.6,2.57-2.97c0.52-1.23,0.79-2.94,0.79-5.13v-17.71h5.67v18.22c0,1.29-0.07,2.46-0.22,3.51
			c-0.15,1.05-0.39,2-0.73,2.87c-0.42,1.08-0.97,2.04-1.68,2.9c-0.7,0.86-1.56,1.58-2.57,2.17c-1.01,0.59-2.17,1.05-3.48,1.37
			C302.43,247.86,300.97,248.02,299.35,248.02z"/>
		<path class="st0" d="M319.7,247.44v-30.94h5.67v30.94H319.7z"/>
	</g>
</g>
</svg>
