<?xml version="1.0" encoding="utf-8"?>
<!-- Generator: Adobe Illustrator 27.9.0, SVG Export Plug-In . SVG Version: 6.00 Build 0)  -->
<svg version="1.1" id="レイヤー_1" xmlns="http://www.w3.org/2000/svg" xmlns:xlink="http://www.w3.org/1999/xlink" x="0px"
	 y="0px" viewBox="0 0 335.6 259.9" style="enable-background:new 0 0 335.6 259.9;" xml:space="preserve">
<style type="text/css">
	.st0{fill:#174299;}
	.st1{fill:none;}
	.st2{display:none;}
	.st3{display:inline;}
	.st4{display:inline;clip-path:url(#SVGID_00000082363615774409672040000007617221020237062796_);fill:#0053A6;}
	.st5{display:inline;clip-path:url(#SVGID_00000082363615774409672040000007617221020237062796_);fill:#006FBC;}
	.st6{display:inline;clip-path:url(#SVGID_00000082363615774409672040000007617221020237062796_);fill:#0093DC;}
	.st7{display:inline;clip-path:url(#SVGID_00000082363615774409672040000007617221020237062796_);fill:#174299;}
	.st8{display:inline;clip-path:url(#SVGID_00000157303459967539799540000001030657467215245476_);fill:#174299;}
</style>
<polygon class="st0" points="259.8,25.7 261.2,28.6 260.7,25.6 "/>
<polygon class="st0" points="260.5,25.6 261.8,28.5 261.4,25.5 "/>
<polygon class="st0" points="260.9,25.3 262.3,28.1 261.8,25.1 "/>
<polygon class="st0" points="261.4,25.5 262.8,28.3 262.3,25.3 "/>
<polygon class="st0" points="261.8,25.1 263.2,28 262.8,25 "/>
<polygon class="st0" points="262.3,25.1 263.6,27.9 263.2,24.9 "/>
<polygon class="st0" points="262.7,24.8 264.1,27.6 263.6,24.6 "/>
<polygon class="st0" points="263.4,24.7 264.7,27.5 264.3,24.5 "/>
<polygon class="st0" points="263.8,24.3 265.2,27.2 264.7,24.2 "/>
<polygon class="st0" points="264.5,24.2 265.8,27.1 265.4,24.1 "/>
<polygon class="st0" points="264.9,23.9 266.2,26.8 265.8,23.8 "/>
<polygon class="st0" points="265.3,23.4 266.6,26.3 266.2,23.2 "/>
<polygon class="st0" points="265.7,23 267.1,25.9 266.6,22.9 "/>
<polygon class="st0" points="266.2,23 267.5,25.9 267.1,22.9 "/>
<polygon class="st0" points="266.7,23.2 268,26.1 267.6,23.1 "/>
<polygon class="st0" points="267,22.6 268.4,25.5 268,22.5 "/>
<polygon class="st0" points="267.5,22.5 268.8,25.4 268.4,22.4 "/>
<polygon class="st0" points="267.9,22.2 269.3,25.1 268.8,22.1 "/>
<polygon class="st0" points="268.6,22.4 270,25.3 269.6,22.3 "/>
<polygon class="st0" points="269,21.8 270.4,24.7 269.9,21.7 "/>
<polygon class="st0" points="269.8,22.2 271.1,25.1 270.7,22.1 "/>
<polygon class="st0" points="269.7,21.7 271,24.6 270.6,21.6 "/>
<polygon class="st0" points="271.9,20.9 273.3,23.8 272.8,20.8 "/>
<polygon class="st0" points="272.3,20.3 273.6,23.2 273.2,20.2 "/>
<polygon class="st0" points="272.7,20 274.1,22.9 273.6,19.8 "/>
<polygon class="st0" points="273.2,20.2 274.6,23.1 274.1,20.1 "/>
<polygon class="st0" points="273.6,19.6 274.9,22.5 274.5,19.5 "/>
<polygon class="st0" points="274,19.3 275.4,22.2 274.9,19.2 "/>
<polygon class="st0" points="274.5,19.2 275.8,22.1 275.4,19.1 "/>
<polygon class="st0" points="274.9,18.9 276.2,21.8 275.8,18.8 "/>
<polygon class="st0" points="275.3,18.6 276.7,21.5 276.2,18.5 "/>
<polygon class="st0" points="275.2,19.1 276.5,22 276.1,19 "/>
<polygon class="st0" points="275.8,18.8 277.1,21.7 276.7,18.7 "/>
<polygon class="st0" points="276.2,18.2 277.5,21.1 277.1,18.1 "/>
<polygon class="st0" points="276.6,17.9 277.9,20.8 277.5,17.8 "/>
<polygon class="st0" points="277.3,18.1 278.6,21 278.2,18 "/>
<polygon class="st0" points="276.7,18.7 278.1,21.6 277.6,18.6 "/>
<polygon class="st0" points="276.8,17.9 278.1,20.7 277.7,17.7 "/>
<polygon class="st0" points="277.6,17.2 279,20.1 278.5,17.1 "/>
<polygon class="st0" points="278.1,17.4 279.5,20.3 279,17.3 "/>
<polygon class="st0" points="278.6,17.4 279.9,20.2 279.5,17.2 "/>
<polygon class="st0" points="279,17.1 280.3,19.9 279.9,16.9 "/>
<polygon class="st0" points="279.5,17 280.8,19.9 280.4,16.9 "/>
<polygon class="st0" points="278.7,17.1 280.1,20 279.6,17 "/>
<polygon class="st0" points="277.6,18 278.9,20.9 278.5,17.9 "/>
<polygon class="st0" points="270.1,21.2 271.4,24 271,21 "/>
<polygon class="st0" points="270.5,21.1 271.9,24 271.5,21 "/>
<polygon class="st0" points="271,21 272.3,23.9 271.9,20.9 "/>
<polygon class="st0" points="271.4,20.7 272.8,23.6 272.3,20.6 "/>
<polygon class="st0" points="280.2,46 282.1,43.4 279.7,45.2 "/>
<polygon class="st0" points="279.6,45.9 281.4,43.3 279,45.2 "/>
<polygon class="st0" points="279,45.7 280.9,43.1 278.5,45 "/>
<polygon class="st0" points="279,45.2 280.8,42.6 278.4,44.5 "/>
<polygon class="st0" points="278.3,45.2 280.1,42.6 277.7,44.4 "/>
<polygon class="st0" points="277.8,45 279.6,42.3 277.2,44.2 "/>
<polygon class="st0" points="277.5,44.6 279.3,42 276.9,43.9 "/>
<polygon class="st0" points="277.1,44.4 278.9,41.8 276.5,43.6 "/>
<polygon class="st0" points="276.6,44.2 278.4,41.6 276,43.4 "/>
<polygon class="st0" points="277.1,44 278.9,41.4 276.5,43.3 "/>
<polygon class="st0" points="276.5,43.6 278.3,41 275.9,42.9 "/>
<polygon class="st0" points="275.8,43.6 277.6,41 275.2,42.9 "/>
<polygon class="st0" points="275.3,43.4 277.1,40.8 274.7,42.7 "/>
<polygon class="st0" points="275.1,42.7 276.9,40.1 274.5,42 "/>
<polygon class="st0" points="275.9,42.9 277.7,40.3 275.3,42.2 "/>
<polygon class="st0" points="275.2,43.3 277,40.7 274.6,42.5 "/>
<polygon class="st0" points="274.2,42.9 276,40.3 273.6,42.1 "/>
<polygon class="st0" points="274.1,42.3 275.9,39.7 273.6,41.6 "/>
<polygon class="st0" points="273.8,42 275.7,39.4 273.3,41.3 "/>
<polygon class="st0" points="273.4,41.8 275.2,39.2 272.8,41 "/>
<polygon class="st0" points="273.1,41.4 274.9,38.8 272.5,40.7 "/>
<polygon class="st0" points="273.5,42 275.3,39.4 273,41.3 "/>
<polygon class="st0" points="274.9,42.5 276.8,39.9 274.4,41.8 "/>
<polygon class="st0" points="281.1,47 282.9,44.4 280.5,46.3 "/>
<polygon class="st0" points="280.8,46.7 282.6,44.1 280.2,46 "/>
<polygon class="st0" points="280.3,46.5 282.1,43.9 279.8,45.8 "/>
<g>
	<path class="st0" d="M273.7,38.8l-0.9-1c6.6-1.4,8.9-4.8,8.9-4.8c-2.2,2.2-8.3,2.5-8.3,2.5c-1.1,0.6-9.6-2.9-9.6-2.9
		c-3.9,0.1-4.3-5.4-4.3-5.4c2.9,0.3,25.1-10,25.1-10c-1.5-5.9-4.8-5.8-4.8-5.8c-12.6-0.7-28.1,4-28.1,4
		c-17.1,2.8-18.4,19.4-18.4,19.4c-3.3,14.8-11.3,13.8-11.3,13.8c-7.9-0.3-20.5-3.5-20.5-3.5c-28.9-2-39.1,1.6-39.1,1.6
		C132.7,39.1,95,63.5,95,63.5C73,82.3,49.8,82.8,49.8,82.8c-17.5,2.5-33.1-6.4-33.1-6.4c9.8,11.3,43.8,11.4,43.8,11.4
		c6.9,0.6,30-10.3,30-10.3c11.5-9.4,48.2-8.6,48.2-8.6l9.6-0.7l1.8,0.2l0.1,0.8c-3.5,4.1-1.5,14.5-1.5,14.5l0.3,1.8l-0.5,2.2
		l-1.2,1.6c-9-0.7-16.5,8.3-16.5,8.3c-5.9,6.2-11.5,8-11.5,8c-7.8,3.4-7,4.2-7,4.2l-7.1,11.9l-1,1.9l-1.4,1.8l-2,1.9l-3,3.2l-0.2,1
		l-0.1,1.3l-0.7,1.9l-1.6,1c-2.8,3,3.8,8.2,3.8,8.2l1.2,1.5l0.8,1.2l1.4,0.8l1.2,0.8l1.6-0.1l3.1,0.4l1.8-0.2l1.1-1.1l2,0.7
		l-0.3-0.9l0.6-0.1l1.3-0.2l1.2-1l0.5-0.7c0.9-2.7,6.3-0.2,6.3-0.2c-1.3-6-7.5-3.5-7.5-3.5l-4.8-3c4.8-4.9,8.7,0.7,8.7,0.7
		c2-7.7-10.1-6-10.1-6c0.7-2.2,1.7-6.2,6.5-13.6c0.1-0.2,0.2-0.3,0.3-0.5c4.8-6.8,10.7-6.4,10.7-6.4l11.9-2.8l2.5-0.4l2.8-1.7
		c14.5-4,16.3-8.5,16.3-8.5l4.2-5.6c3.6-9.8,7-1.2,7-1.2l5.2,4.9l0.9,0.5l0.4,1.4l2.1,4.6l1.7,0.6l0.7-0.7l1.2,0.8l1.1,0.7l1.2,1.6
		l1,1.6l0.3,1.2l0.2,1.4l1,1.2l0.7,0.7l0.7,1.2l0.1,2.8c1.4-0.4,2.4-3.4,2.4-3.4c0.7-0.6,1.8,4.8,1.8,4.8c2.8-2,1.4-6.4,1.4-6.4
		l-1.1-1.1l0.3-1.2l0-1l0.1-2.4c1.2-0.5,2.9,3,2.9,3c0.4-9.9-6.8-6.8-6.8-6.8l-0.7-1.7l-0.4-1.7l-1.4-1.6l-1.1-0.8l-6.4-4
		c-6.3-4.6,0-4.5,0-4.5l3.6-1.2l4.5-1.1l3.2-0.6l2.8-0.9l2.2-0.5l1.1-1.5l1.7-0.2l1-0.1c4.8,0.5,11-1.2,11-1.2l1.4-0.5l1.2,1.3
		l0.9,1.8c0-1.3,6.9,7.1,6.9,7.1c0.4,1.4,3.9,1.5,3.9,1.5l7.2-1c0.2-1.8,14.5-2.9,14.5-2.9c1.4-0.5,5.8-8,5.8-8
		c-1.3-3.2,1.5-3.3,1.5-3.3c-0.1,1.5,3.1,2.2,3.1,2.2C259.4,78,260,82,260,82c2.7-5.1-1.8-9-1.8-9l5-3.8l1.4-0.2l1.1-1.3l1-0.1
		l1.7-0.2l1.9-0.3l1.9-0.3l1.3-0.2l-3.5-2.9l2,0.2l0.5,0.4l0.6,0.6l2.4-1.3l2.4,1.1l1.9-0.4l-0.9-1.5l-2-1.3l1-0.1l1.5,0.6l1.1,0.8
		l0.8,1l0.6,1.7l0.3-2.2l-0.3-1.9l-1.2-1.5l-1.2-1.5l-1.7-0.9l-2.3-1.3l-1.7-0.4l-1.7-0.4l-2.4,1.2l-2.2,1.4l-1.9,1.6l-1.2,0.7
		l-4.9,4.6c-1.7-1.5-5.4,4.5-5.4,4.5l-6.4,0.9c-2.9-2-8.9-0.4-8.9-0.4c-0.3-1.8-3.8-3.6-4.9-4.1c2.6,0.5,11.1-10.5,11.1-10.5
		c3.5-2.8,7.2-12,7.2-12l1.1-2.7l3.6-0.1l1.7,1.6l1.6,1.2c6.2-1.9,17.1,4.7,17.1,4.7c5.9,1,5.1-2.2,5.1-2.2s1.1-0.2,1.7-0.2
		C282.5,45.8,273.7,38.8,273.7,38.8z M240.4,77.4c0,0,5.3-1.4,6.1-1.7l3.5-0.8c0,0-3.5,7.3-3.2,7.5l-9.5,1.4c0,0-4.3-1.4-5.1-0.5
		l-6.3,0.9l-0.4-0.8c0,0,0.6-7.2-2.4-7.4l3-3.3C226.2,72.6,239.7,77.5,240.4,77.4z"/>
	<path class="st0" d="M284.3,45.5C284.3,45.5,284.3,45.5,284.3,45.5C285.1,45.4,284.8,45.5,284.3,45.5z"/>
</g>
<rect class="st1" width="335.6" height="259.9"/>
<g class="st2">
	<defs>
		<rect id="SVGID_1_" x="3.3" y="115.3" width="332.3" height="92.3"/>
	</defs>
	<clipPath id="SVGID_00000078012845019547104510000010804620707635797165_" class="st3">
		<use xlink:href="#SVGID_1_"  style="overflow:visible;"/>
	</clipPath>
	
		<rect x="251.2" y="153.4" style="display:inline;clip-path:url(#SVGID_00000078012845019547104510000010804620707635797165_);fill:#0053A6;" width="42.7" height="152.5"/>
	
		<rect x="228.7" y="177.3" style="display:inline;clip-path:url(#SVGID_00000078012845019547104510000010804620707635797165_);fill:#006FBC;" width="96.7" height="129.3"/>
	
		<rect x="185.9" y="135.8" style="display:inline;clip-path:url(#SVGID_00000078012845019547104510000010804620707635797165_);fill:#0093DC;" width="81.7" height="170.9"/>
	
		<rect x="163.7" y="147.9" style="display:inline;clip-path:url(#SVGID_00000078012845019547104510000010804620707635797165_);fill:#006FBC;" width="61.8" height="158.7"/>
	
		<rect x="134.7" y="115.3" style="display:inline;clip-path:url(#SVGID_00000078012845019547104510000010804620707635797165_);fill:#174299;" width="69.7" height="191.4"/>
	
		<rect x="13.1" y="170" style="display:inline;clip-path:url(#SVGID_00000078012845019547104510000010804620707635797165_);fill:#174299;" width="74.6" height="136.6"/>
	
		<rect x="62.1" y="147.9" style="display:inline;clip-path:url(#SVGID_00000078012845019547104510000010804620707635797165_);fill:#006FBC;" width="72.6" height="158.7"/>
	
		<rect x="118.3" y="177.3" style="display:inline;clip-path:url(#SVGID_00000078012845019547104510000010804620707635797165_);fill:#0093DC;" width="32.7" height="129.3"/>
</g>
<g class="st2">
	<defs>
		<rect id="SVGID_00000035526998569689626010000006306210647591079826_" width="335.6" height="259.9"/>
	</defs>
	<clipPath id="SVGID_00000155866421992272662980000014473341672590268079_" class="st3">
		<use xlink:href="#SVGID_00000035526998569689626010000006306210647591079826_"  style="overflow:visible;"/>
	</clipPath>
	<path style="display:inline;clip-path:url(#SVGID_00000155866421992272662980000014473341672590268079_);fill:#174299;" d="
		M31.5,220.7c-1.5,0-3,0.3-4.3,0.8c-1.3,0.5-2.4,1.2-3.4,2.2c-0.9,1-1.7,2.2-2.2,3.6c-0.5,1.4-0.8,3.1-0.8,4.9
		c0,1.8,0.2,3.4,0.7,4.8c0.5,1.4,1.2,2.5,2.1,3.5c0.9,0.9,2,1.6,3.3,2.1c1.3,0.5,2.7,0.7,4.4,0.7c1.2,0,2.4-0.1,3.6-0.3
		c1.2-0.2,2.4-0.5,3.4-0.8v4.9c-1.1,0.3-2.2,0.6-3.5,0.7c-1.2,0.2-2.5,0.3-3.9,0.3c-2.6,0-4.9-0.4-6.9-1.1c-2-0.7-3.6-1.8-5-3.2
		c-1.3-1.4-2.3-3-3-4.9c-0.7-1.9-1-4-1-6.3c0-2.4,0.4-4.5,1.1-6.6c0.7-2,1.7-3.8,3.1-5.2c1.3-1.5,3-2.6,5.1-3.5
		c2-0.8,4.3-1.3,6.9-1.3c1.3,0,2.6,0.1,3.7,0.3c1.2,0.2,2.2,0.4,3.2,0.8v4.8c-1.2-0.4-2.4-0.7-3.4-0.8
		C33.5,220.8,32.5,220.7,31.5,220.7"/>
	<path style="display:inline;clip-path:url(#SVGID_00000155866421992272662980000014473341672590268079_);fill:#174299;" d="
		M64.7,236.3c0,1.8-0.3,3.4-0.8,4.8c-0.5,1.4-1.3,2.7-2.3,3.7s-2.2,1.8-3.5,2.4c-1.4,0.6-2.9,0.8-4.6,0.8c-1.8,0-3.3-0.3-4.7-0.8
		c-1.4-0.6-2.6-1.4-3.5-2.4s-1.7-2.3-2.2-3.7c-0.5-1.4-0.8-3.1-0.8-4.8c0-1.8,0.3-3.4,0.8-4.8c0.5-1.4,1.3-2.7,2.3-3.7
		c1-1,2.2-1.8,3.5-2.4c1.4-0.6,2.9-0.8,4.6-0.8c1.8,0,3.3,0.3,4.7,0.8c1.4,0.6,2.6,1.4,3.5,2.4s1.7,2.3,2.2,3.7
		C64.5,232.9,64.7,234.5,64.7,236.3 M59.1,236.3c0-1.2-0.1-2.2-0.4-3.1c-0.3-0.9-0.7-1.7-1.2-2.3c-0.5-0.6-1.1-1.1-1.8-1.4
		c-0.7-0.3-1.4-0.5-2.3-0.5c-0.8,0-1.5,0.2-2.2,0.5c-0.7,0.3-1.3,0.8-1.8,1.4c-0.5,0.6-0.9,1.4-1.2,2.3c-0.3,0.9-0.4,2-0.4,3.1
		c0,1.2,0.1,2.2,0.4,3.1c0.3,0.9,0.7,1.7,1.2,2.3c0.5,0.6,1.1,1.1,1.8,1.4c0.7,0.3,1.4,0.5,2.3,0.5c0.8,0,1.6-0.2,2.2-0.5
		c0.7-0.3,1.3-0.8,1.8-1.4c0.5-0.6,0.9-1.4,1.2-2.3C58.9,238.5,59.1,237.4,59.1,236.3"/>
	<path style="display:inline;clip-path:url(#SVGID_00000155866421992272662980000014473341672590268079_);fill:#174299;" d="
		M68.4,236.7c0-2,0.3-3.7,0.8-5.2c0.5-1.5,1.3-2.8,2.2-3.9c0.9-1,2-1.8,3.2-2.3c1.2-0.5,2.5-0.8,3.7-0.8c0.6,0,1.2,0.1,1.7,0.2
		c0.5,0.1,1,0.3,1.5,0.4c0.5,0.2,0.9,0.4,1.3,0.6c0.4,0.2,0.8,0.5,1.2,0.7h0c0-0.3,0-0.7,0-1.3c0-0.6,0-1.2,0-1.8V214h5.5v26.8
		c0,1.5,0,2.8,0,3.8c0,1.1,0.1,2,0.1,2.8h-4.9l-0.2-2.4h-0.1c-0.3,0.4-0.7,0.8-1.2,1.1c-0.5,0.4-1,0.7-1.5,1
		c-0.5,0.3-1.1,0.5-1.8,0.6c-0.7,0.2-1.4,0.2-2.1,0.2c-1.2,0-2.4-0.2-3.5-0.6c-1.1-0.4-2.1-1.1-3-2c-0.9-0.9-1.6-2.1-2.1-3.5
		C68.7,240.4,68.4,238.7,68.4,236.7 M79.2,243.6c0.5,0,1.1-0.1,1.5-0.2c0.5-0.1,0.9-0.3,1.4-0.6c0.4-0.2,0.8-0.5,1.1-0.8
		c0.3-0.3,0.6-0.5,0.8-0.8v-10.6c-0.6-0.5-1.4-1-2.2-1.3c-0.8-0.3-1.6-0.5-2.5-0.5c-0.6,0-1.2,0.1-1.8,0.3c-0.6,0.2-1.2,0.6-1.7,1.2
		c-0.5,0.6-0.9,1.3-1.3,2.3c-0.3,1-0.5,2.2-0.5,3.8c0,2.3,0.4,4,1.3,5.3C76.3,243,77.6,243.6,79.2,243.6"/>
	<path style="display:inline;clip-path:url(#SVGID_00000155866421992272662980000014473341672590268079_);fill:#174299;" d="
		M107.5,243.6c1.1,0,2.2-0.1,3.3-0.3c1.2-0.2,2.3-0.5,3.5-0.9v4.4c-0.7,0.3-1.8,0.6-3.3,0.9c-1.5,0.3-3,0.4-4.6,0.4
		c-1.6,0-3.1-0.2-4.5-0.6c-1.4-0.4-2.7-1.1-3.7-2c-1.1-0.9-1.9-2.1-2.5-3.5c-0.6-1.4-0.9-3.2-0.9-5.3c0-2,0.3-3.8,0.9-5.3
		c0.6-1.5,1.4-2.8,2.4-3.8c1-1,2.1-1.8,3.4-2.3c1.3-0.5,2.6-0.8,3.9-0.8c1.4,0,2.7,0.2,3.9,0.6c1.2,0.4,2.2,1.1,3.1,2
		c0.9,0.9,1.6,2.1,2,3.6c0.5,1.5,0.7,3.2,0.7,5.2c0,0.8,0,1.4-0.1,2h-14.7c0.1,1,0.3,1.9,0.7,2.6c0.4,0.7,0.9,1.3,1.5,1.8
		c0.6,0.5,1.4,0.8,2.2,1C105.7,243.5,106.6,243.6,107.5,243.6 M105.3,228.8c-0.7,0-1.3,0.1-1.8,0.4c-0.5,0.3-1,0.6-1.4,1
		c-0.4,0.4-0.7,1-0.9,1.5c-0.2,0.6-0.4,1.2-0.5,1.9h8.8c0-0.7-0.1-1.3-0.3-1.9c-0.2-0.6-0.4-1.1-0.8-1.5c-0.3-0.4-0.8-0.8-1.3-1
		C106.6,228.9,106,228.8,105.3,228.8"/>
	<path style="display:inline;clip-path:url(#SVGID_00000155866421992272662980000014473341672590268079_);fill:#174299;" d="
		M144.1,218.4c-0.6-0.2-1.2-0.3-1.9-0.4c-0.6-0.1-1.2-0.1-1.8-0.1c-0.6,0-1.2,0.1-1.6,0.2c-0.5,0.1-0.9,0.4-1.2,0.7
		c-0.3,0.3-0.6,0.8-0.8,1.3c-0.2,0.5-0.3,1.2-0.3,2v2.9h6.2v4.5h-6.2v17.9h-5.5v-17.9h-3.8V225h3.8v-2.7c0-1.6,0.2-2.9,0.7-4.1
		s1.1-2.1,1.8-2.8c0.8-0.7,1.7-1.3,2.8-1.6c1.1-0.3,2.2-0.5,3.5-0.5c0.8,0,1.5,0.1,2.3,0.2c0.8,0.1,1.4,0.3,2,0.5V218.4z"/>
	<path style="display:inline;clip-path:url(#SVGID_00000155866421992272662980000014473341672590268079_);fill:#174299;" d="
		M166.9,236.3c0,1.8-0.3,3.4-0.8,4.8c-0.5,1.4-1.3,2.7-2.3,3.7c-1,1-2.2,1.8-3.5,2.4c-1.4,0.6-2.9,0.8-4.6,0.8
		c-1.8,0-3.3-0.3-4.7-0.8c-1.4-0.6-2.6-1.4-3.5-2.4c-1-1-1.7-2.3-2.2-3.7c-0.5-1.4-0.8-3.1-0.8-4.8c0-1.8,0.3-3.4,0.8-4.8
		c0.5-1.4,1.3-2.7,2.3-3.7c1-1,2.2-1.8,3.5-2.4c1.4-0.6,2.9-0.8,4.6-0.8c1.8,0,3.3,0.3,4.7,0.8c1.4,0.6,2.6,1.4,3.5,2.4
		c1,1,1.7,2.3,2.2,3.7C166.7,232.9,166.9,234.5,166.9,236.3 M161.3,236.3c0-1.2-0.1-2.2-0.4-3.1c-0.3-0.9-0.7-1.7-1.2-2.3
		c-0.5-0.6-1.1-1.1-1.8-1.4c-0.7-0.3-1.4-0.5-2.3-0.5c-0.8,0-1.5,0.2-2.2,0.5c-0.7,0.3-1.3,0.8-1.8,1.4c-0.5,0.6-0.9,1.4-1.2,2.3
		c-0.3,0.9-0.4,2-0.4,3.1c0,1.2,0.1,2.2,0.4,3.1c0.3,0.9,0.7,1.7,1.2,2.3c0.5,0.6,1.1,1.1,1.8,1.4c0.7,0.3,1.4,0.5,2.3,0.5
		s1.6-0.2,2.2-0.5c0.7-0.3,1.3-0.8,1.8-1.4c0.5-0.6,0.9-1.4,1.2-2.3C161.1,238.5,161.3,237.4,161.3,236.3"/>
	<path style="display:inline;clip-path:url(#SVGID_00000155866421992272662980000014473341672590268079_);fill:#174299;" d="
		M185.1,229.4h-0.5c-1.7,0-3.2,0.2-4.4,0.8c-1.3,0.5-2.3,1.3-2.9,2.3v15h-5.5V225h4.5l0.5,3.1h0.1c0.6-1.1,1.5-2,2.7-2.7
		c1.1-0.7,2.5-1,4.1-1c0.6,0,1,0,1.4,0.1V229.4z"/>
	
		<polygon style="display:inline;clip-path:url(#SVGID_00000155866421992272662980000014473341672590268079_);fill:#174299;" points="
		204.5,247.4 198.8,247.4 198.8,216.5 218.5,216.5 218.5,221.2 204.5,221.2 204.5,229.2 216.5,229.2 216.5,234 204.5,234 	"/>
	<path style="display:inline;clip-path:url(#SVGID_00000155866421992272662980000014473341672590268079_);fill:#174299;" d="
		M236.3,248c-1.6,0-3.1-0.2-4.4-0.5c-1.3-0.3-2.4-0.8-3.4-1.4c-1-0.6-1.8-1.3-2.5-2.2c-0.7-0.9-1.2-1.8-1.7-2.9
		c-0.3-0.9-0.6-1.8-0.7-2.9c-0.1-1-0.2-2.2-0.2-3.5v-18.2h5.7v17.7c0,2.2,0.3,3.9,0.8,5.1c0.6,1.4,1.4,2.4,2.6,3
		c1.1,0.6,2.4,0.9,4,0.9c1.5,0,2.9-0.3,4-0.9c1.1-0.6,2-1.6,2.6-3c0.5-1.2,0.8-2.9,0.8-5.1v-17.7h5.7v18.2c0,1.3-0.1,2.5-0.2,3.5
		c-0.1,1-0.4,2-0.7,2.9c-0.4,1.1-1,2-1.7,2.9c-0.7,0.9-1.6,1.6-2.6,2.2c-1,0.6-2.2,1-3.5,1.4C239.4,247.9,237.9,248,236.3,248"/>
	
		<polygon style="display:inline;clip-path:url(#SVGID_00000155866421992272662980000014473341672590268079_);fill:#174299;" points="
		256.6,247.4 256.6,216.5 262.3,216.5 262.3,230.6 262.4,230.6 274.1,216.5 281.1,216.5 268.2,231.8 282.1,247.4 274.9,247.4 
		262.4,233.5 262.3,233.5 262.3,247.4 	"/>
	<path style="display:inline;clip-path:url(#SVGID_00000155866421992272662980000014473341672590268079_);fill:#174299;" d="
		M299.3,248c-1.6,0-3.1-0.2-4.4-0.5c-1.3-0.3-2.4-0.8-3.4-1.4c-1-0.6-1.8-1.3-2.5-2.2c-0.7-0.9-1.2-1.8-1.7-2.9
		c-0.3-0.9-0.6-1.8-0.7-2.9c-0.1-1-0.2-2.2-0.2-3.5v-18.2h5.7v17.7c0,2.2,0.3,3.9,0.8,5.1c0.6,1.4,1.4,2.4,2.6,3
		c1.1,0.6,2.5,0.9,4,0.9s2.9-0.3,4-0.9c1.1-0.6,2-1.6,2.6-3c0.5-1.2,0.8-2.9,0.8-5.1v-17.7h5.7v18.2c0,1.3-0.1,2.5-0.2,3.5
		c-0.1,1-0.4,2-0.7,2.9c-0.4,1.1-1,2-1.7,2.9c-0.7,0.9-1.6,1.6-2.6,2.2c-1,0.6-2.2,1-3.5,1.4C302.4,247.9,301,248,299.3,248"/>
	
		<rect x="319.7" y="216.5" style="display:inline;clip-path:url(#SVGID_00000155866421992272662980000014473341672590268079_);fill:#174299;" width="5.7" height="30.9"/>
</g>
</svg>
